<?xml version="1.0" encoding="UTF-8"?>
<!DOCTYPE svg PUBLIC "-//W3C//DTD SVG 1.1//EN" "http://www.w3.org/Graphics/SVG/1.1/DTD/svg11.dtd">
<!-- Creator: CorelDRAW X6 -->
<svg xmlns="http://www.w3.org/2000/svg" xml:space="preserve" width="500mm" height="500mm" version="1.1" style="shape-rendering:geometricPrecision; text-rendering:geometricPrecision; image-rendering:optimizeQuality; fill-rule:evenodd; clip-rule:evenodd"
viewBox="0 0 50000 50000"
 xmlns:xlink="http://www.w3.org/1999/xlink">
 <defs>
  <style type="text/css">
   <![CDATA[
    .fil0 {fill:black}
   ]]>
  </style>
 </defs>
 <g id="Layer_x0020_1">
  <metadata id="CorelCorpID_0Corel-Layer"/>
  <g id="_693258496">
   <path class="fil0" d="M18711 41241l2 392 3627 34c104,0 428,-31 509,35l3001 0c62,-79 880,-33 988,-38 591,-31 2935,41 3136,-30l14 -392c-615,-12 -1295,-23 -1906,1 -460,17 -1488,51 -1910,-4 -254,-33 -460,-186 -612,-340 -236,-240 -223,-316 -222,-734 4,-1815 -55,-4039 9,-5758 35,-943 -46,-3039 18,-3819 31,-377 434,-627 773,-666 161,-19 276,-32 444,-40 594,-26 1191,-90 1786,-122 1185,-63 2438,-130 3620,-237 589,-53 1216,-92 1804,-118 589,-26 1194,-91 1786,-122 588,-31 1207,-66 1789,-118l1866 -83c57,-379 7,-298 -592,-298l-28550 0c-656,0 -680,-74 -624,298 165,35 693,-1 937,22l2685 178c593,28 1198,93 1788,122 1816,92 3562,268 5422,355 173,8 2236,138 2429,189 181,47 573,293 606,641 54,577 -17,1296 13,1887 32,620 -14,1274 5,1899 53,1796 7,3904 10,5758 1,404 29,508 -206,750 -151,157 -349,312 -600,352 -333,54 -3156,-5 -3844,8z"/>
   <path class="fil0" d="M24510 12001l-3127 -4c-298,0 -299,-55 -293,265 4,181 2,362 2,542l14 15354c146,103 1575,49 1744,49 515,0 1294,-46 1776,7 455,50 2991,18 3679,18l0 -382 -4019 -286c-364,-14 -1265,-40 -1531,-190 -142,-80 -344,-300 -344,-511l5 -5981c-1,-390 22,-236 1047,-341l3708 -313c182,-42 74,19 114,-78 -46,-95 38,-27 -90,-71l-4466 -382c-42,-4 -101,-8 -139,-13l-162 -42c-7,-640 -44,-6107 -6,-6350 42,-272 262,-389 518,-466 175,-52 659,-74 868,-93 988,-87 2692,-292 3574,-313 161,-4 251,-27 447,-32 171,-4 266,-32 478,-32l0 -382c-909,0 -2707,-34 -3509,0l-287 25z"/>
   <path class="fil0" d="M14588 21946l61 -116c70,-102 150,-240 225,-341 303,-404 2176,-1322 2942,-3365 209,-557 352,-1198 423,-1867 84,-795 1,-1295 -157,-2036 -217,-1018 -288,-1274 -842,-2024 -110,-149 -112,-204 -278,-295 -163,-89 -237,-51 -524,-51l-2902 0 0 349c468,9 951,42 1435,41 1650,-2 2077,245 2386,2098 140,841 103,495 103,1360 0,983 -221,2138 -808,2917l-1521 1440c-132,117 -268,221 -417,348 -140,120 -255,208 -400,333 -82,70 -98,89 -185,198 -701,883 -568,1810 -568,2780 0,1425 -39,3127 3,4489l3730 -2 9 -351c-629,-2 -2044,94 -2500,-279 -504,-413 -384,-488 -384,-1312l0 -3340c0,-457 -19,-616 168,-974z"/>
   <path class="fil0" d="M36503 21946l61 -116c273,-402 132,-289 535,-605 664,-520 1287,-1000 1791,-1650 784,-1012 1119,-1945 1264,-3318 84,-795 1,-1295 -157,-2036 -152,-714 -244,-1127 -597,-1696 -78,-125 -141,-188 -245,-328 -344,-465 -363,-346 -1376,-346 -776,0 -1552,-2 -2328,0l0 349c468,9 951,42 1435,41 1650,-2 2077,245 2386,2098 140,841 103,495 103,1360 0,983 -221,2138 -808,2917 -287,380 -749,793 -1126,1104 -79,65 -102,79 -188,161 -74,71 -113,92 -207,175 -778,686 -1329,901 -1557,2204 -43,245 -17,5678 -9,5945l3730 -2 9 -351c-629,-2 -2044,94 -2500,-279 -504,-413 -384,-488 -384,-1312l0 -3340c0,-457 -19,-616 168,-974z"/>
   <path class="fil0" d="M34050 21830l62 116c181,350 168,497 168,943l0 3340c0,856 107,936 -350,1315 -128,107 -162,151 -373,199 -558,126 -1535,109 -2157,109l-3 344 3738 8c9,-271 34,-5700 -9,-5944 -68,-389 -163,-710 -392,-1073 -293,-464 -309,-415 -730,-768 -287,-240 -528,-446 -812,-685l-393 -339c-1387,-1160 -1621,-2624 -1558,-4397 16,-457 252,-1430 410,-1816 377,-926 1034,-943 2047,-941 494,1 990,-34 1467,-41l0 -350 -3286 1c-132,17 -51,4 -121,39 -6,3 -14,8 -20,11 -159,87 -429,477 -510,604 -561,879 -882,2644 -770,3725 143,1382 472,2306 1254,3327 501,654 1123,1138 1787,1654 122,95 250,186 314,259 28,32 225,331 239,360z"/>
   <path class="fil0" d="M12135 21830l62 116c181,350 168,497 168,943l0 3340c0,310 51,818 -78,1047 -53,93 -189,200 -271,268 -128,107 -162,151 -373,199 -558,126 -1535,109 -2157,109l-3 344 3738 8c9,-271 34,-5700 -9,-5944 -9,-52 -30,-228 -50,-305 -79,-302 -403,-959 -656,-1189l-1623 -1372c-153,-128 -262,-250 -394,-372 -1045,-966 -1215,-2618 -1164,-4025 16,-457 252,-1430 410,-1816 377,-926 1034,-943 2047,-941 494,1 990,-34 1467,-41l0 -350 -3466 74c-124,79 -142,137 -225,253 -546,766 -623,924 -850,2017 -155,749 -249,1234 -166,2036 67,650 212,1326 417,1872 542,1440 1472,2215 2623,3110 122,95 250,186 314,259 28,32 225,331 239,360z"/>
   <path class="fil0" d="M38582 6569c61,-125 288,-393 390,-530 124,-167 271,-363 527,-175 32,259 -584,907 -634,934 -112,-72 -205,-139 -282,-230zm-841 -604c94,-176 247,-393 369,-561 126,-174 290,-412 526,-145 -24,186 -485,834 -605,925l-290 -219zm-140 -1473c60,49 117,82 187,137 -26,106 -535,906 -615,972l-196 -113 -153 248 2553 1851c47,-74 116,-131 161,-222l-131 -122c71,-198 585,-643 678,-950 127,-417 -199,-797 -830,-785 -65,-411 -302,-626 -743,-659 -42,-162 162,1 -318,-319 -109,-73 -327,-235 -450,-279l-144 241z"/>
   <path class="fil0" d="M19277 1135c-38,-32 -37,-20 -82,-44l-280 57 49 290 -451 104 -134 -582 814 -181 43 227 45 69 328 -64 -135 -665c-281,44 -2089,505 -2258,592l89 290 317 -82 499 1734 -268 69 88 310 2067 -530 -132 -643 -340 49 62 326 -790 192 -204 -764 442 -115 79 266 322 -69 -170 -838z"/>
   <path class="fil0" d="M5404 10447c196,-120 486,138 597,232 535,451 238,807 -424,297 -130,-101 -468,-348 -173,-528zm-125 -288c-482,121 -825,902 -119,1422 538,397 1201,416 1434,-448 116,120 322,230 178,491 -134,243 -241,269 -515,199l-143 212c87,84 279,228 403,270 291,-183 1017,-908 629,-1496 -197,-298 -1136,-890 -1242,-1091 55,-84 90,-97 128,-188 -66,-49 -134,-113 -217,-164 -107,81 -351,418 -482,573 -77,91 -115,108 -55,219z"/>
   <path class="fil0" d="M22105 1511c-27,-236 -49,-561 204,-566 258,-5 273,309 292,533 18,217 58,588 -228,570 -212,-13 -245,-333 -268,-537zm353 -860c-281,-195 -1230,-62 -1074,986 110,742 728,974 1172,725 9,-5 34,-21 43,-26 7,-4 16,-10 23,-14l48 -29c10,283 -18,428 -282,476 -264,48 -398,-34 -449,-254l-262 28 36 474c306,145 1224,113 1498,-352 193,-328 25,-1374 20,-1826 327,-27 240,25 240,-296 -99,-24 -784,8 -918,62l-94 46z"/>
   <path class="fil0" d="M1993 28508c89,320 -81,358 -358,421 -164,38 -539,118 -652,-12 -356,-410 705,-563 1010,-410zm-1446 62l105 17 -36 72c-130,275 17,658 163,812 366,385 1272,258 1564,-218 165,-269 130,-621 -54,-858 -50,-54 -34,51 -44,-69l110 1c223,16 346,45 396,264 69,301 -30,377 -223,454l55 275 470 -83c85,-249 26,-658 -48,-901 -342,-1120 -1458,-385 -2248,-462l-4 -150c-7,-8 -29,-32 -33,-36 -3,-3 -15,-7 -18,-18 -3,-11 -13,-11 -18,-16l-146 17 -104 8 116 891z"/>
   <path class="fil0" d="M10449 5423c223,-150 424,176 516,306 81,114 349,454 118,593 -269,162 -635,-440 -702,-584 -81,-175 -46,-238 68,-315zm-11 -416c51,59 26,-78 47,77l-78 -4c-351,24 -697,384 -679,790 17,393 358,759 583,895 362,220 848,77 1025,-196 170,-261 -71,-1 411,-322 121,-81 357,-226 439,-314 -31,-82 -79,-156 -148,-227 -109,32 -101,45 -191,99 -92,-69 -247,-330 -324,-440l-930 -1364c-129,72 -253,156 -374,245 -132,98 -269,173 -390,287 41,105 99,175 168,229l183 -117c88,101 197,236 260,362z"/>
   <path class="fil0" d="M1604 20725l-53 294 662 98c138,-426 517,-998 323,-1577 -163,-488 -902,-669 -1264,-261 -123,138 -251,412 -346,609 -441,920 -800,69 -435,-402 79,-102 159,-128 323,-154 98,-16 167,86 190,-324l-600 -129c-215,442 -773,1626 37,1955 1100,447 1076,-1098 1546,-1097 315,0 286,399 207,616 -134,364 -327,261 -590,370z"/>
   <path class="fil0" d="M47961 32180l-86 309 587 183c291,-385 854,-1533 138,-1966 -201,-121 -545,-180 -761,-46 -197,122 -289,307 -405,518 -102,186 -240,509 -464,495 -299,-20 -275,-376 -179,-595 123,-280 256,-324 608,-349l73 -301c-209,-28 -475,-133 -660,-125 -215,444 -852,1559 -31,1964 230,113 546,140 756,1 390,-258 549,-1027 835,-1050 342,-27 265,388 183,601 -111,289 -232,344 -593,360z"/>
   <path class="fil0" d="M46705 19227l40 71 95 -11 178 -36 -17 -196c160,-34 277,-96 402,-41 -46,119 -242,316 -318,373 -61,18 59,-44 -101,-40 -34,1 -158,35 -209,43l212 1008c353,-25 279,-71 276,-161 -7,-202 44,-195 158,-332 155,-187 308,-383 471,-555 448,111 461,540 510,606l272 -48 -202 -893c-53,11 -137,25 -178,39 -113,37 -82,45 -152,110l-403 -285 1293 -347 77 -35 -14 -88 -224 -829 -285 78 54 235 -1829 552 -64 -226 -288 61 246 948z"/>
   <path class="fil0" d="M15412 47662c-148,-52 -366,-119 -475,-216l705 -1624 286 100 94 -256c-72,-65 -1004,-481 -1159,-522l-112 271 222 92c-37,263 -625,1272 -731,1644l-472 -206 144 -351 -282 -134c-92,94 -287,505 -324,635l2302 1019c79,-100 239,-534 259,-670l-317 -112 -139 329z"/>
   <path class="fil0" d="M2310 31987c264,-183 694,-88 510,191 -138,209 -461,148 -510,-191zm256 -1040l48 234c-448,211 -1024,154 -1206,611 -170,426 160,1112 390,1345 125,-7 359,-87 438,-163 -81,-290 -68,-222 -154,-244 -149,-37 -200,-9 -279,-144 -142,-240 -67,-445 187,-510 121,159 147,430 292,606 143,174 323,304 638,201 571,-186 494,-901 118,-1086 3,-10 18,-45 19,-52 46,-192 -156,-684 -212,-869l-277 70z"/>
   <path class="fil0" d="M37786 44068c-311,-472 347,-561 348,-119 0,162 -112,207 -227,263l-121 -144zm349 364c5,-5 13,-11 18,-16 22,-19 49,-36 76,-54 45,-30 89,-60 130,-91 93,-69 157,-126 226,-220 347,-477 -140,-1085 -631,-919 -239,81 -338,240 -450,433 -5,1 -13,-2 -15,-3 -186,-27 -766,421 -796,451l127 247 226 -113c296,292 427,967 957,982 457,13 1032,-510 1156,-769 -88,-127 -159,-235 -267,-359l-223 135c40,278 63,356 -156,479 -209,118 -335,35 -429,-127l52 -56z"/>
   <path class="fil0" d="M45878 15685c255,-181 457,-264 555,141 -221,163 -541,237 -555,-141zm546 -873l97 250c241,6 335,10 419,217 104,256 -12,364 -198,426 -167,-188 -336,-1009 -1003,-720 -624,271 -306,988 -3,1093 -71,152 -80,58 80,449 56,136 111,330 193,441l252 -85 -57 -228c412,-258 1025,-238 1151,-725 118,-455 -285,-1125 -516,-1299l-414 181z"/>
   <path class="fil0" d="M5213 37904c323,-316 603,-180 538,54 -53,194 -438,319 -538,-54zm-11 -1096l-21 85 101 182c-209,107 -398,249 -596,370 -973,593 109,1595 365,1720 84,-36 298,-201 372,-270 -44,-70 -105,-142 -152,-218 -236,48 -350,49 -464,-147 -124,-214 -47,-351 117,-434 147,92 136,252 432,491 430,347 1072,-82 950,-567 -56,-225 -246,-428 -464,-496 27,-116 43,-101 -32,-213l-408 -595c-109,51 -93,67 -200,94z"/>
   <path class="fil0" d="M47638 22336c288,-188 500,-95 507,293 -304,36 -551,94 -507,-293zm785 -692l29 273c219,65 319,84 333,338 13,224 -111,364 -334,331 -48,-508 -145,-1056 -750,-969 -646,94 -560,768 -303,1061 -108,67 -94,-14 -59,417 13,167 25,326 36,492l284 -10 8 -247c503,-59 1098,40 1330,-357 201,-344 92,-1089 -116,-1375l-458 46z"/>
   <path class="fil0" d="M26902 48115c-190,-640 482,-713 343,-95 -111,84 -153,116 -343,95zm-4 -758c-75,51 125,80 -60,31 -45,-67 -17,-57 -95,-72 -3,-1 -131,2 -143,2 -188,-11 -521,-12 -668,65l13 270 245 -8c101,522 -66,1099 359,1330 471,255 976,29 1390,-94l-62 -477 -274 31c-53,212 -87,321 -351,330 -254,8 -320,-100 -325,-339 510,-19 1052,-148 989,-719 -77,-701 -877,-543 -1020,-351z"/>
   <path class="fil0" d="M20934 47358c345,-26 298,298 266,578 -23,204 -66,589 -249,645 -474,145 -267,-940 -17,-1223zm965 885c333,-1316 -1589,-1659 -1891,-546 -177,653 168,1043 686,1167 618,148 1075,-108 1205,-621z"/>
   <path class="fil0" d="M43982 37363c-77,-303 232,-299 573,-107 872,489 469,720 313,709 -204,-14 -846,-444 -886,-602zm413 -799c-557,125 -880,695 -829,1134 53,457 581,927 1117,822 432,-85 871,-633 830,-1158 -35,-451 -599,-914 -1118,-797z"/>
   <path class="fil0" d="M12123 44584c25,-101 120,-266 206,-316 476,-275 336,791 -206,316zm-130 713c-174,-134 -183,-265 -51,-438 206,59 338,229 620,282 779,148 1105,-1128 -14,-1187l-743 -551 -155 238 182 148c-107,184 -248,379 -374,567 -136,204 -261,444 -134,714 139,296 694,683 1159,719 81,-102 196,-287 225,-406l-225 -122c-160,113 -268,208 -491,35z"/>
   <path class="fil0" d="M35044 3542c55,-200 180,-393 416,-317 71,183 -6,324 -72,485l-344 -168zm771 854l-330 -153c-117,112 -268,305 -526,144 -206,-128 -174,-371 -50,-562l982 487c774,-1092 -866,-2031 -1495,-1119 -828,1202 970,2051 1420,1202z"/>
   <path class="fil0" d="M3690 13828c-153,-26 -414,-190 -338,-361 85,-190 369,-53 490,40l-152 320zm874 -733l-178 312c99,121 285,265 138,524 -111,195 -376,194 -564,50 63,-266 409,-705 507,-983 -552,-302 -977,-298 -1305,183 -794,1166 854,2004 1448,1188 359,-493 379,-1079 -46,-1274z"/>
   <path class="fil0" d="M29034 1574c-4,-179 53,-406 225,-403 228,3 166,289 147,456 -117,35 -273,-3 -372,-53zm-57 1120l467 18c271,-16 492,-240 548,-470l-370 -92c-99,197 -184,346 -475,274 -178,-44 -201,-240 -181,-406 18,-153 -14,-85 70,-128 33,5 80,7 114,17 145,39 56,21 96,46l809 164c249,-1428 -1034,-1359 -1391,-1138 -315,195 -449,496 -417,1001 28,446 323,623 729,715z"/>
   <path class="fil0" d="M7858 8126c-60,-35 -356,-304 -174,-460 147,-126 385,121 439,213l-265 247zm1085 -419c-89,43 -178,159 -262,229 13,63 219,392 -82,580 -84,52 -184,67 -289,20 -104,-46 -181,-117 -229,-197l778 -753c-256,-373 -789,-605 -1271,-237 -1100,839 112,2170 1008,1578 278,-184 781,-791 347,-1219z"/>
   <path class="fil0" d="M25040 842c92,130 308,763 387,962 74,187 473,947 -52,847 -37,-61 -53,-118 -59,-219l-316 1 -2 438c796,347 881,-194 1144,-719l501 -1061c110,-245 44,-204 324,-205l22 -285 -761 -64 -14 273 176 51 -322 703 -290 -718c5,-2 230,16 174,-225 -35,-149 56,-82 -83,-82l-1005 -29 -10 237c8,5 18,11 24,13 6,3 17,8 25,11 117,44 131,-33 139,71z"/>
   <path class="fil0" d="M3078 34882l-100 -253 -481 196c15,507 373,1230 775,1288 294,42 571,-164 623,-412 70,-340 -182,-659 -17,-872 198,-39 289,99 325,265 49,224 -108,291 -190,425l111 216c147,-12 387,-181 515,-239 -98,-601 -578,-1680 -1283,-1127 -388,305 -61,718 -97,1053 -29,270 -253,88 -326,-83 -115,-268 13,-325 145,-456z"/>
   <path class="fil0" d="M42800 10164c-57,-90 -87,-146 -172,-208 -139,77 -278,229 -425,321 70,388 618,1123 1058,1093 277,-19 537,-264 522,-569 -13,-279 -303,-686 -192,-821 146,-123 280,77 328,168 118,223 7,308 -80,429 43,83 86,153 159,221 159,-57 280,-203 422,-273 -97,-459 -831,-1590 -1432,-890 -332,387 118,778 116,1040 -2,260 -277,155 -376,-9 -133,-221 -30,-348 70,-502z"/>
   <path class="fil0" d="M7069 41090c-145,41 -248,-1 -370,-185 -125,-188 -10,-317 59,-424l-170 -208c-98,45 -351,272 -401,335 62,215 318,543 427,668 584,673 1241,200 1146,-312 -53,-285 -352,-534 -253,-770 177,-73 315,40 390,186 107,207 -11,311 -73,462l190 171 405 -377c-113,-302 -660,-1072 -1165,-984 -248,43 -511,308 -456,637 50,300 331,557 271,801z"/>
   <path class="fil0" d="M30450 48146l-72 32c-9,-154 -9,-30 30,-81l452 -1155c85,-212 39,-187 2,-391 -248,20 -1414,291 -1588,389l126 563 291 -54 -49 -300 493 -113c-86,428 -732,1403 -493,1593 77,24 1446,-320 1633,-378l-166 -556 -291 70 46 286 -416 96z"/>
   <path class="fil0" d="M1477 17191l552 205 93 -294 -251 -103c21,-80 48,-145 75,-228l91 -203c3,-4 10,-13 15,-19 163,193 337,463 480,676 76,114 148,215 234,340 117,170 119,200 381,249l542 -1508c-141,-108 -376,-191 -561,-236l-101 293 263 98c-24,130 -110,393 -185,471l-698 -1047c-94,-152 -126,-225 -355,-243l-575 1548z"/>
   <path class="fil0" d="M46501 35723c72,9 36,11 93,-10 40,-226 544,-1137 657,-1468 -83,-80 -405,-219 -539,-220l-105 250c74,65 141,81 236,113 -31,172 -131,320 -186,471 -7,-6 -16,-24 -19,-19l-51 -57c-15,-20 -45,-72 -61,-99l-526 -906c-96,-171 -119,-225 -340,-267l-689 1467 526 255 141 -255 -254 -148 212 -463 612 1081c94,183 101,223 294,274z"/>
   <path class="fil0" d="M31876 1553c-95,-3 -41,-12 -108,18l-45 225 223 88c-30,367 -486,1094 -252,1401 222,291 1083,483 1108,-120l-238 -93 -92 28c-30,137 -39,181 -206,157 -39,-168 260,-990 346,-1146l416 131 106 -288 -422 -144 154 -482c-139,-54 -535,-195 -667,-203l-134 450 -189 -22z"/>
   <path class="fil0" d="M35618 44962l-136 -242c-161,63 -879,412 -970,504l117 243 210 -59 954 1950c152,-34 673,-335 870,-423l-117 -260c-132,28 -144,61 -261,102l-863 -1687 195 -127z"/>
   <path class="fil0" d="M45576 12798c12,-7 42,-76 94,28l170 324 262 -130 -212 -400 429 -254 -338 -581c-189,47 -274,194 -452,225l-125 -189 -256 145 123 227c-202,119 -395,242 -597,362 -194,115 -457,249 -506,450 -51,210 233,1151 909,725l-147 -289c-149,47 -141,94 -306,44 -41,-177 64,-179 412,-379 175,-100 360,-206 539,-309z"/>
   <path class="fil0" d="M48839 25212c-374,16 -1141,-127 -1364,93 -206,203 -270,1015 143,1063l209 33c54,-116 3,-131 66,-228l-13 -94 -250 -52 0 -156c278,-48 851,3 1169,14 143,62 4,131 52,423l255 14c11,-105 -14,-242 38,-303l9 -96c2,-5 10,-14 14,-21l477 13 26 -660 -495 -25 -6 -234 -276 -17c-3,38 -4,99 -11,137 -28,140 -8,46 -42,95z"/>
   <path class="fil0" d="M41703 40721c123,-92 157,-144 252,-239 -3,-10 -319,-464 49,-597 225,-81 533,188 625,277 118,114 385,319 257,573 -189,374 -564,81 -616,64l-170 200c82,94 297,314 401,382 446,-133 1528,-1098 492,-1867 -837,-622 -1940,485 -1289,1207z"/>
   <path class="fil0" d="M23539 47681c117,-5 36,-35 106,21l-82 2039 -3 117c136,23 220,-7 314,43l639 2 -1 -291 -267 -12 54 -1895 246 -9 -16 -299 -496 -5 -558 -14 -29 230c7,6 17,14 22,18l72 56z"/>
   <path class="fil0" d="M10306 42643c132,56 99,97 236,129l150 -224c-88,-96 -794,-666 -889,-708 -59,65 -133,134 -185,203l185 187c-48,88 -438,556 -509,606 -262,186 -649,140 -403,-264l-237 -182c-135,135 -300,281 -381,444 133,191 306,407 670,410 -70,157 -59,120 69,217l598 468c104,-70 118,-120 184,-204 -47,-65 -125,-117 -178,-191 164,-286 520,-605 688,-891z"/>
   <path class="fil0" d="M33329 46022l-118 -283 -1010 376c50,308 52,279 274,230 142,254 404,1185 523,1360l875 -321 -105 -287 -261 78 -397 -1073 221 -80z"/>
   <path class="fil0" d="M12542 3696l129 263 225 -111 555 1003 -193 130 143 246c205,-63 736,-391 958,-508l-118 -258 -205 75 -666 -1274 -829 433z"/>
   <path class="fil0" d="M41422 7454c58,60 111,114 161,196 -58,94 -700,742 -805,802 -93,-67 -89,-96 -204,-141l-161 194c154,218 562,556 748,763l217 -182 -120 -156c218,-241 945,-868 1026,-1024l-666 -664 -197 213z"/>
   <path class="fil0" d="M40230 41721c52,-117 82,-96 153,-192l-179 -194 -819 711 186 216 154 -102c120,90 556,632 720,816 71,80 167,203 237,258l701 -626 -191 -197c-121,81 -87,104 -237,145 -135,-215 -623,-660 -726,-835z"/>
   <path class="fil0" d="M40878 43407c81,444 857,302 734,-219 -97,-409 -830,-301 -734,219z"/>
   <path class="fil0" d="M33122 48084c126,443 844,261 733,-216 -103,-440 -878,-296 -733,216z"/>
   <path class="fil0" d="M12741 2711c-515,168 -280,857 208,698 422,-137 276,-856 -208,-698z"/>
   <path class="fil0" d="M42166 7019c-484,235 -73,859 341,669 403,-184 109,-888 -341,-669z"/>
   <path class="fil0" d="M47463 14910c-27,-5 -107,-26 -125,-27 -82,-3 -44,-37 -80,29 111,353 103,311 428,451 183,79 454,222 641,272 -16,-55 -204,-525 -229,-558 -87,-113 -473,-156 -635,-168z"/>
   <path class="fil0" d="M19960 49541l45 72 517 78c117,-91 586,-509 640,-620 -445,-65 -358,-108 -681,118 -178,124 -366,227 -520,353z"/>
   <path class="fil0" d="M1432 32881c-95,-397 -91,-365 -410,-535 -183,-98 -426,-254 -606,-320 22,131 60,226 98,349 54,175 33,229 190,287 164,60 557,192 728,219z"/>
   <path class="fil0" d="M10786 45814l-6 79c77,67 176,115 276,179 129,83 139,126 298,61 218,-89 428,-187 645,-270l-19 -84c-307,-98 -119,-202 -564,-96 -188,45 -453,116 -629,131z"/>
   <path class="fil0" d="M26565 49928c0,62 40,35 121,32l477 -34 427 -753c-402,1 -432,54 -618,285l-407 470z"/>
   <path class="fil0" d="M859 24076c-124,62 -287,156 -182,407 59,141 239,240 427,163 394,-162 124,-753 -245,-571z"/>
   <path class="fil0" d="M22849 41701c-81,-66 -405,-35 -509,-35l-3627 -34 -2 -392c-86,65 -61,375 -14,423 40,40 100,37 101,37l1947 -1c631,0 1508,61 2104,2z"/>
   <path class="fil0" d="M25850 41701c401,39 2844,-2 3635,-2 85,0 170,-1 255,0 150,2 382,66 296,-361 -31,-155 1,-44 -48,-97l-14 392c-201,71 -2545,-1 -3136,30 -107,6 -925,-41 -988,38z"/>
   <path class="fil0" d="M25040 842c-8,-104 -23,-27 -139,-71 -8,-3 -19,-9 -25,-11 -6,-3 -17,-8 -24,-13l10 -237 1005 29c-24,-47 -916,-75 -1031,-45l-12 305 216 42z"/>
   <path class="fil0" d="M49145 26018c-52,61 -27,198 -38,303l-255 -14c-48,-292 90,-361 -52,-423 55,189 -31,273 32,455l295 12 18 -332z"/>
   <path class="fil0" d="M23539 47681l-72 -56c-5,-4 -14,-12 -22,-18l29 -230 558 14c-49,-28 49,-6 -68,-27l-518 -9 -19 318 111 7z"/>
   <path class="fil0" d="M29445 2712l-467 -18c10,5 23,2 29,14 5,12 20,10 27,13 106,32 343,60 411,-9z"/>
   <path class="fil0" d="M47618 26368c34,84 180,69 266,52l9 -248c-63,97 -12,112 -66,228l-209 -33z"/>
   <path class="fil0" d="M48839 25212c34,-49 14,45 42,-95 7,-37 8,-98 11,-137l276 17c-44,-60 -17,-40 -128,-48 -86,-7 -104,0 -174,26l-28 237z"/>
   <path class="fil0" d="M23874 49901c-94,-50 -178,-20 -314,-43l3 -117c-20,30 -17,4 -29,62 -13,61 -2,25 6,87l334 11z"/>
   <path class="fil0" d="M47258 14912c37,-66 -2,-32 80,-29 18,1 98,22 125,27 -70,-64 -142,-70 -247,-71 12,149 -5,14 42,73z"/>
   <path class="fil0" d="M750 27725l-28 -105c-115,9 -120,-7 -187,51l146 -17c5,5 16,5 18,16 3,11 15,15 18,18 4,4 26,28 33,36z"/>
   <path class="fil0" d="M29248 1952c-40,-25 49,-7 -96,-46 -35,-9 -81,-12 -114,-17 85,63 92,49 210,62z"/>
   <path class="fil0" d="M26685 49960c-80,3 -121,30 -121,-32 -52,50 -32,-49 -46,60 121,12 72,27 167,-28z"/>
   <path class="fil0" d="M19196 1091c44,24 44,13 82,44l2 -61 -45 -69c-14,64 -4,44 -39,85z"/>
   <path class="fil0" d="M2288 28395c5,-6 12,-23 14,-18 3,5 12,-14 16,-18 5,-5 28,-26 36,-32l-110 -1c10,119 -7,14 44,69z"/>
   <path class="fil0" d="M20005 49613l-45 -72c-61,53 -53,-57 -51,64l96 7z"/>
   <polygon class="fil0" points="615,28659 651,28587 546,28570 "/>
   <path class="fil0" d="M10407 5080l78 4c-21,-155 5,-18 -47,-77l-31 74z"/>
   <path class="fil0" d="M46840 19287l-95 11 -40 -71 30 102c165,-9 68,-12 105,-41z"/>
   <path class="fil0" d="M49031 18532l109 -24c-14,-162 -9,-62 -45,-99l14 88 -77 35z"/>
   <path class="fil0" d="M10779 45893l6 -79 -80 43c24,32 25,8 74,37z"/>
   <path class="fil0" d="M32472 3100l92 -28c0,-99 -75,2 -92,28z"/>
   <path class="fil0" d="M11998 45863c2,-2 119,-7 -19,-84l19 84z"/>
   <path class="fil0" d="M30450 48146c-55,-6 -39,9 -42,-49 -39,51 -39,-74 -30,81l72 -32z"/>
   <path class="fil0" d="M45671 12827c-52,-104 -82,-36 -94,-28l94 28z"/>
   <path class="fil0" d="M31768 1571c68,-29 14,-21 108,-18l-58 -48 -50 65z"/>
   <path class="fil0" d="M5180 36893l21 -85c-102,60 -30,75 -21,85z"/>
   <path class="fil0" d="M46501 35723l44 55 49 -65c-57,21 -21,19 -93,10z"/>
   <path class="fil0" d="M26898 47357c-9,-6 -20,-13 -27,-17l-271 -21c12,0 140,-3 143,-2 78,15 50,5 95,72 184,48 -15,19 60,-31z"/>
   <path class="fil0" d="M14588 21946c6,-6 16,-23 18,-19 2,5 13,-15 16,-20 26,-54 12,-11 27,-78l-61 116z"/>
   <path class="fil0" d="M36503 21946c6,-6 16,-23 18,-19 2,5 13,-15 16,-20 26,-54 12,-11 27,-78l-61 116z"/>
   <path class="fil0" d="M12197 21946l-62 -116c19,80 -7,15 15,54 30,52 19,32 46,62z"/>
   <path class="fil0" d="M34111 21946l-62 -116c19,80 -7,15 15,54 30,52 19,32 46,62z"/>
  </g>
 </g>
</svg>
